<svg width="23" height="25" viewBox="0 0 23 25" fill="none" xmlns="http://www.w3.org/2000/svg">
<path d="M5.92717 3.08838L6.02719 3.52638C6.06974 3.5088 6.11305 3.49122 6.1556 3.4751C6.19815 3.45827 6.23989 3.44285 6.28163 3.42897C6.32262 3.4143 6.36275 3.40043 6.40374 3.38796C6.44392 3.37549 6.48329 3.36452 6.52267 3.35355C6.58886 3.33672 6.65818 3.32571 6.72276 3.31985C6.78815 3.31399 6.85036 3.31179 6.90395 3.31324C6.9583 3.31399 7.00397 3.3169 7.0371 3.31985C7.07097 3.3228 7.09225 3.32571 7.09699 3.32571L7.12139 3.32791L7.14423 3.33597L7.16233 3.3499L7.17493 3.36893L7.18123 3.39236V3.41875L7.17412 3.44585L7.16233 3.47294L6.88898 3.94244L6.87244 3.96588L6.85354 3.98641L6.83307 4.00399L6.80867 4.01791L6.79606 4.02452L6.78109 4.02963L6.76849 4.03183L6.75351 4.03404C6.75034 4.03404 6.73542 4.03183 6.71096 4.03108C6.68576 4.02963 6.65107 4.02963 6.6117 4.02963C6.57232 4.02963 6.52897 4.03258 6.48173 4.03844C6.43525 4.04355 6.3872 4.05162 6.34153 4.06408C6.29585 4.0758 6.25093 4.09047 6.20445 4.10585C6.15877 4.12198 6.11229 4.1388 6.065 4.15638C6.01852 4.17541 5.97204 4.19449 5.92399 4.21718C5.87751 4.23771 5.82866 4.26115 5.78142 4.28529C5.7184 4.31754 5.66012 4.34899 5.60653 4.38269C5.55294 4.4164 5.5057 4.4501 5.46079 4.48376C5.41748 4.51746 5.3773 4.55187 5.34261 4.58702C5.30717 4.62218 5.27803 4.65734 5.25202 4.69249C5.22681 4.7291 5.20554 4.76501 5.18744 4.80016C5.17166 4.83607 5.15749 4.87123 5.14882 4.90563C5.14015 4.94079 5.13465 4.9752 5.13304 5.0089C5.13304 5.0426 5.13622 5.07631 5.14327 5.10926C5.15114 5.13856 5.15825 5.1664 5.17085 5.18984C5.18189 5.21327 5.19525 5.23381 5.21023 5.25138C5.22676 5.26821 5.2441 5.28363 5.26457 5.29535C5.28504 5.30562 5.30712 5.31368 5.33233 5.31879C5.35754 5.3239 5.38668 5.3254 5.41818 5.3239C5.44969 5.3224 5.48438 5.31804 5.52375 5.31073C5.56156 5.30266 5.60331 5.28949 5.64742 5.27557C5.6939 5.2609 5.74195 5.24262 5.79392 5.21988L6.37057 4.97234C6.4785 4.92621 6.58089 4.88735 6.67779 4.8566C6.77388 4.8251 6.86372 4.80091 6.94958 4.78409C7.03468 4.76726 7.11423 4.7577 7.18748 4.75554C7.2631 4.75409 7.33162 4.75919 7.39544 4.77166C7.45846 4.78413 7.51598 4.80462 7.56715 4.83321C7.61994 4.86176 7.66561 4.89912 7.70579 4.94379C7.74597 4.98846 7.77985 5.04049 7.8098 5.10199C7.83737 5.16279 7.86102 5.23165 7.87831 5.30852C7.88855 5.35465 7.89641 5.40082 7.90039 5.44624C7.90357 5.49237 7.90513 5.53779 7.90432 5.58396C7.90196 5.62938 7.89802 5.67481 7.88935 5.72093C7.88149 5.7656 7.87201 5.81178 7.85865 5.8557C7.84524 5.90257 7.8287 5.94799 7.8106 5.99267C7.79251 6.03809 7.77123 6.08201 7.74839 6.12598C7.72556 6.17065 7.70035 6.21312 7.67277 6.25709C7.6452 6.30031 7.61449 6.34353 7.58298 6.386C7.55067 6.42846 7.51603 6.47098 7.48059 6.5127C7.44359 6.55446 7.40497 6.59548 7.36398 6.63575C7.323 6.67676 7.27969 6.71632 7.23477 6.75589C7.1891 6.79545 7.14261 6.83426 7.0922 6.87232C7.07012 6.88845 7.04809 6.90457 7.026 6.9214C7.00392 6.93678 6.98108 6.9529 6.95905 6.96828C6.93622 6.9844 6.91338 6.99978 6.88893 7.0159C6.86528 7.03128 6.84244 7.04595 6.8188 7.06133L6.93541 7.58356L6.2107 7.95345L6.09646 7.44223C6.04368 7.46492 5.9917 7.48545 5.94129 7.50669C5.88931 7.52722 5.83809 7.5455 5.78687 7.56383C5.73726 7.5814 5.68604 7.59823 5.63643 7.6129C5.58601 7.62828 5.53716 7.6422 5.48831 7.65537C5.4135 7.6759 5.33233 7.68542 5.25121 7.68908C5.17085 7.69273 5.0913 7.69053 5.01885 7.68542C4.94873 7.68031 4.88651 7.67295 4.84003 7.66639C4.79436 7.65978 4.76522 7.65392 4.75967 7.65322L4.73366 7.64956L4.71319 7.64075L4.69585 7.62683L4.68481 7.60704L4.68007 7.58361L4.68087 7.55872L4.68717 7.53162L4.69897 7.50453L4.99279 7.00723L5.00857 6.98454L5.02747 6.96476L5.04794 6.94793L5.07002 6.93401L5.08656 6.9267L5.10234 6.92159L5.12044 6.91864L5.13622 6.91789C5.14015 6.91864 5.16223 6.923 5.19611 6.9274C5.22918 6.93251 5.27491 6.93912 5.32764 6.94278C5.37962 6.94789 5.4387 6.95009 5.49698 6.94789C5.55607 6.94493 5.61515 6.93837 5.67031 6.9252C5.7239 6.91053 5.77663 6.89515 5.83022 6.87833C5.88381 6.86075 5.93579 6.84242 5.98857 6.82264C6.04055 6.80211 6.09258 6.78162 6.14531 6.75743C6.19729 6.73475 6.24695 6.70981 6.29812 6.68492C6.3627 6.65196 6.42416 6.61826 6.48087 6.58311C6.53915 6.54795 6.5943 6.51279 6.64391 6.47543C6.69589 6.43882 6.74393 6.40001 6.78805 6.36115C6.83216 6.32229 6.87315 6.28278 6.91096 6.24101C6.94877 6.2 6.98108 6.15823 7.00705 6.11721C7.03306 6.07695 7.05353 6.03518 7.0677 5.99417C7.08186 5.9524 7.08978 5.91068 7.0921 5.86967C7.09527 5.82865 7.0921 5.78618 7.08186 5.74517C7.07637 5.71587 7.06689 5.68878 7.05509 5.66534C7.04405 5.64045 7.03145 5.61992 7.01491 5.60163C6.99913 5.58331 6.98184 5.56723 6.96057 5.55621C6.9401 5.54374 6.91802 5.53423 6.89362 5.52692C6.86997 5.52031 6.84164 5.5174 6.81089 5.5174C6.77938 5.5174 6.7455 5.52106 6.70688 5.52767C6.66988 5.53573 6.62889 5.54599 6.58478 5.55992C6.54066 5.57309 6.49337 5.59067 6.44296 5.6112L5.78283 5.89465C5.68513 5.93642 5.59141 5.97082 5.50318 5.99867C5.41415 6.02721 5.33067 6.04849 5.2503 6.06312C5.17231 6.07779 5.0975 6.08656 5.02737 6.08876C4.95725 6.09021 4.89266 6.08581 4.83202 6.07339C4.77137 6.06312 4.71621 6.04334 4.66661 6.01479C4.617 5.9884 4.57364 5.95254 4.53427 5.90787C4.49565 5.8639 4.46258 5.81117 4.435 5.75112C4.40662 5.69032 4.38459 5.62146 4.36649 5.54459C4.35782 5.50212 4.34995 5.46035 4.34758 5.41713C4.34284 5.37467 4.34209 5.3329 4.34284 5.28898C4.34521 5.24651 4.34995 5.20399 4.35625 5.16007C4.36412 5.11685 4.3736 5.07438 4.3862 5.03041C4.3988 4.98645 4.41297 4.94398 4.43031 4.90076C4.44685 4.85754 4.46575 4.81432 4.48703 4.7733C4.5083 4.73084 4.53034 4.68982 4.55635 4.6488C4.58075 4.60704 4.60913 4.56602 4.63827 4.52576C4.66822 4.48474 4.69892 4.44518 4.7328 4.40637C4.76587 4.3668 4.80056 4.32799 4.83681 4.29063C4.87381 4.25252 4.91162 4.21446 4.9518 4.17855C4.99279 4.14194 5.03372 4.10679 5.07703 4.07163C5.09437 4.05696 5.11403 4.04233 5.13294 4.02841C5.15185 4.01449 5.17075 3.99987 5.18885 3.98665C5.20932 3.97272 5.22822 3.95955 5.24794 3.94638C5.26765 3.93246 5.28812 3.91929 5.30702 3.90612L5.207 3.4586L5.92717 3.08838Z" fill="white"/>
<path d="M12.3212 6.46413C12.4386 6.17192 12.5307 5.88331 12.5985 5.59915L10.4425 3.77393C10.4055 4.0669 10.333 4.37454 10.2258 4.68944L12.3212 6.46413Z" fill="white"/>
<path d="M11.6193 7.79056C11.7801 7.54667 11.9234 7.30203 12.0502 7.05594L9.97614 5.30103C9.85877 5.55007 9.72089 5.80128 9.56415 6.05028L11.6193 7.79056Z" fill="white"/>
<path d="M5.63416 9.30969C5.29935 9.43494 4.9701 9.52574 4.65344 9.57847L6.82046 11.4132C7.12214 11.3297 7.42861 11.2213 7.73578 11.088L5.63416 9.30969Z" fill="white"/>
<path d="M8.3518 10.7877C8.60624 10.6508 8.85832 10.4977 9.10721 10.3285L7.04889 8.58606C6.79289 8.75378 6.53451 8.90172 6.27533 9.03062L8.3518 10.7877Z" fill="white"/>
<path d="M3.30404 3.01743C0.988906 5.38242 0.412315 8.39855 2.01529 9.75572L3.43557 10.9584C4.09414 11.5157 5.01813 11.7054 6.03903 11.5728L3.73337 9.62166C3.28277 9.57989 2.88812 9.43561 2.5817 9.1771C1.34735 8.13047 1.96256 5.55159 3.92716 3.54477C5.89177 1.53866 8.596 0.727156 9.83196 1.77378C10.1738 2.0631 10.3747 2.4718 10.4432 2.95297L12.7127 4.8741C12.7915 3.86483 12.5063 2.97786 11.8186 2.39633L10.3992 1.19441C8.79609 -0.162721 5.61998 0.65389 3.30404 3.01743Z" fill="white"/>
<path d="M9.62796 9.94629C9.84615 9.77417 10.0604 9.58812 10.2692 9.3904L8.22503 7.66113C8.0155 7.85815 7.79963 8.04124 7.57831 8.21192L9.62796 9.94629Z" fill="white"/>
<path d="M10.7111 8.94348C10.9049 8.73399 11.0861 8.52015 11.2539 8.3026L9.20577 6.56897C9.04193 6.78797 8.8631 7.00402 8.66931 7.2135L10.7111 8.94348Z" fill="white"/>
<path d="M7.69405 19.2129L7.30177 19.2978C7.31911 19.3308 7.33565 19.3645 7.35062 19.3974C7.3664 19.4297 7.38133 19.4619 7.39474 19.4949C7.4089 19.5264 7.4215 19.5579 7.43411 19.5894C7.44515 19.6209 7.45619 19.6509 7.46799 19.6816C7.48377 19.7329 7.49476 19.7856 7.50187 19.8362C7.50817 19.8874 7.51134 19.935 7.51134 19.9775C7.51215 20.0193 7.50978 20.0559 7.50741 20.0815C7.50585 20.1079 7.50424 20.124 7.50348 20.1277L7.50192 20.1474L7.49561 20.165L7.48301 20.1797L7.46567 20.1907L7.44439 20.1951L7.42075 20.1958L7.3971 20.1907L7.3727 20.1819L6.94337 19.9783L6.92129 19.9658L6.90319 19.9519L6.88666 19.9351L6.87405 19.9175L6.86775 19.9065L6.86382 19.8955L6.86064 19.8853L6.85908 19.8743C6.85908 19.8743 6.85989 19.8604 6.86064 19.8406C6.86064 19.8216 6.86145 19.7952 6.85984 19.7644C6.85903 19.7329 6.8551 19.6992 6.85036 19.6627C6.84406 19.6268 6.83458 19.5894 6.82278 19.555C6.81099 19.5198 6.79838 19.4832 6.7826 19.4473C6.76763 19.4122 6.75266 19.3763 6.73456 19.3404C6.71721 19.3045 6.69755 19.2679 6.67784 19.232C6.65813 19.1954 6.6361 19.1587 6.61326 19.1214C6.58331 19.0738 6.55261 19.0284 6.52186 18.9874C6.49035 18.9471 6.45884 18.9098 6.42814 18.8761C6.39663 18.8416 6.36431 18.8116 6.33205 18.786C6.30054 18.7596 6.26747 18.7369 6.23515 18.7171C6.20208 18.6981 6.16976 18.6819 6.13669 18.6702C6.10438 18.6571 6.07287 18.6475 6.04136 18.6409C6.00985 18.6351 5.97834 18.6314 5.94764 18.6314C5.91693 18.6314 5.88774 18.6351 5.85704 18.6409C5.83027 18.6468 5.80663 18.6541 5.78535 18.6629C5.76408 18.6724 5.74517 18.6834 5.73101 18.6966C5.71603 18.7083 5.70262 18.7223 5.69239 18.7384C5.68372 18.7552 5.67661 18.7721 5.67268 18.7926C5.66794 18.8124 5.66637 18.835 5.66874 18.8592C5.67111 18.8841 5.67585 18.9105 5.68452 18.9405C5.69163 18.9706 5.70343 19.0035 5.7176 19.0379C5.73257 19.0723 5.74991 19.1097 5.77038 19.15L6.00511 19.5946C6.04922 19.6773 6.08547 19.7557 6.11617 19.8311C6.14612 19.9051 6.16976 19.9754 6.1863 20.0413C6.20284 20.1079 6.21307 20.1702 6.21544 20.2273C6.22018 20.2859 6.21544 20.3394 6.20521 20.3892C6.19653 20.4383 6.17919 20.4837 6.15398 20.5247C6.12797 20.565 6.09646 20.6016 6.05789 20.6346C6.01771 20.6661 5.97048 20.6939 5.91608 20.7174C5.86173 20.7415 5.80108 20.7606 5.73176 20.7752C5.69002 20.7847 5.64828 20.7913 5.60729 20.795C5.56711 20.7994 5.52537 20.8016 5.48438 20.8016C5.44264 20.8001 5.40089 20.7979 5.3599 20.7935C5.31972 20.7877 5.27798 20.7796 5.2378 20.7715C5.19525 20.7606 5.15431 20.7496 5.11333 20.7356C5.07234 20.7232 5.03221 20.7071 4.99203 20.6902C4.95185 20.6733 4.91248 20.6543 4.8723 20.6338C4.83292 20.6133 4.79274 20.5906 4.75493 20.5672C4.71475 20.543 4.67694 20.5159 4.63832 20.4888C4.5997 20.4609 4.5627 20.4317 4.52489 20.4009C4.48789 20.3702 4.45083 20.3364 4.41458 20.302C4.37758 20.2683 4.34133 20.2317 4.30745 20.1944C4.29092 20.1768 4.27675 20.1607 4.26178 20.1431C4.2468 20.1263 4.23264 20.1087 4.21686 20.0918C4.20269 20.0735 4.18847 20.0567 4.17355 20.0383C4.15938 20.02 4.14517 20.0024 4.13024 19.9841L3.66154 20.0845L3.31494 19.5279L3.77417 19.429C3.75209 19.3887 3.73242 19.3484 3.71271 19.3089C3.693 19.2693 3.67571 19.2297 3.65837 19.1902C3.64102 19.1507 3.62529 19.1126 3.61108 19.0738C3.5953 19.035 3.58194 18.9969 3.57009 18.9595C3.55038 18.9009 3.53939 18.8386 3.5354 18.7756C3.5291 18.7119 3.52991 18.6504 3.53303 18.594C3.53697 18.5383 3.54171 18.49 3.5472 18.4541C3.55194 18.4182 3.55668 18.3955 3.55744 18.3904L3.5598 18.3714L3.56767 18.3553L3.58108 18.3406L3.59686 18.3318L3.61733 18.3281H3.64097L3.66618 18.3325L3.68982 18.3428L4.14436 18.5604L4.16407 18.5728L4.18298 18.586L4.19876 18.6021L4.21136 18.6189L4.21766 18.6314L4.22397 18.6446L4.22633 18.6578L4.2279 18.6709C4.22633 18.6731 4.22397 18.69 4.22003 18.7171C4.21529 18.7434 4.21056 18.7801 4.20899 18.8196C4.20506 18.8606 4.20425 18.9068 4.20743 18.9529C4.21061 18.9976 4.21766 19.0445 4.23183 19.0862C4.24524 19.1287 4.26021 19.1697 4.27751 19.2107C4.29404 19.2518 4.31058 19.2928 4.33029 19.333C4.3492 19.3733 4.36966 19.4129 4.39174 19.4524C4.41302 19.4927 4.43666 19.5323 4.46026 19.5711C4.49096 19.6209 4.52247 19.667 4.55559 19.7117C4.58791 19.7564 4.62179 19.7981 4.65561 19.8377C4.6903 19.8758 4.72493 19.9131 4.76118 19.9468C4.79743 19.9805 4.83443 20.0113 4.87225 20.0406C4.91006 20.0691 4.94867 20.0933 4.98487 20.1131C5.02349 20.1321 5.06049 20.1475 5.0975 20.1571C5.13531 20.168 5.17312 20.1732 5.21012 20.1746C5.24713 20.1754 5.28494 20.1724 5.32275 20.1629C5.34876 20.1585 5.37316 20.1504 5.39444 20.1417C5.41652 20.1322 5.43381 20.1219 5.45035 20.1087C5.46613 20.0963 5.48029 20.0816 5.49134 20.0655C5.50157 20.0494 5.50943 20.0326 5.51574 20.0128C5.52047 19.9937 5.52284 19.9725 5.52123 19.9476C5.52123 19.9234 5.5173 19.8977 5.51019 19.8677C5.50389 19.8384 5.49365 19.8062 5.48024 19.7725C5.46683 19.7389 5.4503 19.7022 5.43139 19.6634L5.16198 19.1544C5.12336 19.079 5.09029 19.0065 5.06352 18.9384C5.03675 18.8695 5.01547 18.805 5.0005 18.7428C4.98472 18.682 4.97529 18.6234 4.97292 18.5692C4.96975 18.515 4.97292 18.4637 4.9824 18.4176C4.99107 18.3693 5.0068 18.3261 5.03125 18.2865C5.0549 18.2477 5.08716 18.2132 5.12578 18.1818C5.16515 18.151 5.21088 18.1239 5.26523 18.1012C5.31957 18.0778 5.38103 18.0594 5.45116 18.0448C5.48816 18.036 5.52678 18.0301 5.56539 18.0265C5.60321 18.0228 5.64182 18.0206 5.68039 18.0206C5.71901 18.0214 5.75682 18.0236 5.79619 18.0294C5.83557 18.0331 5.87418 18.0404 5.91436 18.0492C5.95374 18.058 5.99392 18.069 6.03173 18.0815C6.0711 18.0932 6.11053 18.1071 6.14834 18.1225C6.18695 18.1386 6.22396 18.1554 6.26177 18.1745C6.29958 18.1935 6.33739 18.214 6.37364 18.236C6.41145 18.2587 6.4477 18.2814 6.4847 18.3078C6.51939 18.332 6.55483 18.3583 6.58946 18.3869C6.62491 18.4133 6.65959 18.4433 6.69347 18.4734C6.72654 18.5041 6.75966 18.5356 6.79193 18.5686C6.8061 18.5825 6.8187 18.5979 6.83211 18.6118C6.84471 18.6264 6.85732 18.6403 6.87073 18.6557C6.88333 18.6704 6.89593 18.685 6.90854 18.7004C6.92033 18.7143 6.93374 18.7297 6.94554 18.7458L7.34729 18.6587L7.69405 19.2129Z" fill="white"/>
<path d="M4.77716 24.26C5.04264 24.3457 5.30495 24.4131 5.56096 24.4592L7.16398 22.7439C6.89931 22.7204 6.62122 22.6699 6.33608 22.5923L4.77716 24.26Z" fill="white"/>
<path d="M3.56799 23.7385C3.79012 23.8594 4.01305 23.967 4.23755 24.0608L5.77993 22.4099C5.55226 22.3235 5.32383 22.2209 5.09616 22.1038L3.56799 23.7385Z" fill="white"/>
<path d="M2.08074 19.1045C1.96182 18.8467 1.87359 18.5918 1.82 18.3464L0.209106 20.0705C0.290223 20.3035 0.393422 20.5408 0.518702 20.7773L2.08074 19.1045Z" fill="white"/>
<path d="M0.801514 21.2511C0.930726 21.4466 1.0733 21.64 1.2316 21.8312L2.76057 20.1934C2.60615 19.9971 2.46675 19.7987 2.34546 19.5995L0.801514 21.2511Z" fill="white"/>
<path d="M7.70667 17.1664C5.53017 15.4086 2.80068 15.0182 1.60808 16.2948L0.55411 17.4242C0.0633758 17.9479 -0.0902372 18.6715 0.0491589 19.4647L1.76325 17.63C1.79164 17.2777 1.9145 16.9671 2.14136 16.7247C3.06062 15.7411 5.39703 16.1703 7.24427 17.6622C9.0907 19.1534 9.8753 21.2452 8.95599 22.2288C8.70074 22.5013 8.33685 22.6654 7.90439 22.7276L6.21788 24.5338C7.12927 24.5756 7.92254 24.336 8.43375 23.7889L9.48932 22.6588C10.6804 21.3837 9.88397 18.9242 7.70667 17.1664Z" fill="white"/>
<path d="M1.58521 22.229C1.74512 22.396 1.91683 22.5593 2.09883 22.7183L3.61756 21.0923C3.43638 20.9326 3.26623 20.7671 3.10949 20.5986L1.58521 22.229Z" fill="white"/>
<path d="M2.51086 23.0536C2.70385 23.2015 2.90001 23.3378 3.0993 23.463L4.62122 21.8348C4.42036 21.711 4.22264 21.5763 4.02965 21.4291L2.51086 23.0536Z" fill="white"/>
<path d="M16.8853 19.9466C17.2184 20.0258 17.5469 20.0829 17.8668 20.1158L19.64 17.8666C19.3138 17.8629 18.9672 17.827 18.6096 17.7596L16.8853 19.9466Z" fill="white"/>
<path d="M15.3492 19.4223C15.6343 19.5497 15.9187 19.6596 16.2039 19.7526L17.9101 17.589C17.6226 17.5048 17.3319 17.4015 17.0396 17.2777L15.3492 19.4223Z" fill="white"/>
<path d="M13.0262 13.8954C12.8521 13.59 12.7166 13.2875 12.6245 12.9923L10.8419 15.2533C10.9671 15.5309 11.1191 15.8099 11.298 16.0875L13.0262 13.8954Z" fill="white"/>
<path d="M11.6957 16.6404C11.8754 16.8674 12.0699 17.0908 12.2842 17.3091L13.977 15.1631C13.7651 14.9375 13.5737 14.7075 13.4035 14.4746L11.6957 16.6404Z" fill="white"/>
<path d="M19.6959 10.9951C16.8427 9.04974 13.461 8.82999 12.1424 10.5021L10.9742 11.9838C10.433 12.6708 10.3243 13.5702 10.5811 14.526L12.4764 12.1222C12.474 11.6886 12.5906 11.2975 12.8411 10.9774C13.8588 9.68912 16.7616 9.99381 19.1839 11.6447C21.6038 13.2956 22.7908 15.7792 21.7739 17.0682C21.4927 17.4257 21.0657 17.66 20.5435 17.778L18.6766 20.1452C19.7952 20.1108 20.7396 19.7431 21.3052 19.0253L22.4734 17.5444C23.792 15.8723 22.549 12.9396 19.6959 10.9951Z" fill="white"/>
<path d="M12.7607 17.7626C12.9742 17.9515 13.2019 18.1354 13.4421 18.3126L15.1232 16.1813C14.8829 16.0025 14.6568 15.8165 14.4465 15.6254L12.7607 17.7626Z" fill="white"/>
<path d="M13.9825 18.6847C14.2346 18.8459 14.4891 18.9945 14.7466 19.13L16.4308 16.9943C16.1716 16.8617 15.914 16.7159 15.662 16.5548L13.9825 18.6847Z" fill="white"/>
<path d="M16.9302 11.9992L16.9412 12.0051L16.9538 12.0109L16.9649 12.0175L16.9759 12.0248L17.0027 12.0461L17.0247 12.0703L17.0413 12.0959L17.0523 12.1208L17.2004 12.5851L17.2052 12.6195L17.1934 12.6452L17.1674 12.6606L17.1296 12.6635C17.1248 12.6628 17.0972 12.6584 17.0563 12.6518C17.0153 12.6459 16.9602 12.6379 16.9003 12.6328C16.8404 12.6269 16.7751 12.6225 16.7152 12.6218C16.6537 12.6225 16.597 12.6269 16.5529 12.6379L16.4214 12.6767L16.3032 12.7244L16.1961 12.78L16.0992 12.8445C16.0614 12.8738 16.0283 12.9038 15.9992 12.9346C15.9692 12.9653 15.9448 12.9983 15.9243 13.032C15.9039 13.065 15.8865 13.0994 15.8755 13.136C15.8637 13.1712 15.8574 13.2085 15.8542 13.2459C15.8519 13.284 15.8558 13.3221 15.8668 13.3602C15.8763 13.3983 15.8936 13.4363 15.9172 13.4759C15.9401 13.514 15.9692 13.5535 16.0047 13.5923C16.0409 13.6312 16.0826 13.6707 16.1307 13.7103L16.1953 13.7616L16.2599 13.8055L16.3244 13.8443L16.3875 13.8773L16.4253 13.8934L16.4623 13.9073L16.4993 13.9191L16.5363 13.9279L16.6347 13.9396L16.7356 13.9323L16.838 13.9066L16.942 13.8627L17.3878 13.6173C17.454 13.5814 17.5217 13.5529 17.5911 13.5287C17.6596 13.5052 17.7297 13.4884 17.8006 13.4774C17.8715 13.4657 17.9447 13.4598 18.018 13.4613C18.0913 13.462 18.1653 13.4693 18.2409 13.4818L18.3347 13.5016L18.43 13.5294L18.5277 13.5646C18.5608 13.5778 18.5939 13.5924 18.6277 13.6078C18.675 13.6305 18.7246 13.6554 18.7735 13.6832C18.8231 13.7111 18.8727 13.7404 18.9232 13.7741C18.9744 13.807 19.0255 13.8429 19.0776 13.881C19.1296 13.9191 19.1816 13.9601 19.2351 14.0026C19.2847 14.0436 19.3328 14.0854 19.3769 14.1264C19.421 14.1682 19.462 14.2092 19.4998 14.2502C19.5392 14.292 19.5739 14.3337 19.6062 14.3747C19.6384 14.4157 19.6684 14.4575 19.696 14.4985C19.7235 14.5387 19.7479 14.5791 19.77 14.6193C19.7913 14.6596 19.8102 14.6992 19.8267 14.7387L19.8677 14.8552L19.8937 14.9687L19.9048 15.0808L19.9 15.1877C19.8969 15.2236 19.8898 15.2573 19.8811 15.2903C19.8725 15.3247 19.8614 15.3569 19.8481 15.3884L19.8283 15.428L19.8055 15.4661L19.7795 15.5027L19.7519 15.5386L20.2789 15.9707L19.8457 16.2989L19.3313 15.8726L19.2407 15.918L19.1501 15.9576L19.0548 15.992L18.9587 16.0205C18.9028 16.0344 18.8405 16.0425 18.7759 16.0454C18.7114 16.0491 18.6467 16.0484 18.5877 16.0447C18.5294 16.0425 18.4766 16.0373 18.4373 16.0329C18.3986 16.0285 18.3727 16.0249 18.3687 16.0241L18.3498 16.0234L18.3301 16.0197L18.3089 16.0139L18.2876 16.005L18.2765 15.9999L18.2655 15.9933L18.2545 15.986L18.2434 15.9802L18.2143 15.9575L18.1906 15.9326L18.1725 15.9077L18.1607 15.8806L18.0142 15.4397L18.0111 15.4082L18.0205 15.3833L18.0434 15.3672L18.0772 15.3613L18.1269 15.365C18.1536 15.3672 18.1914 15.3686 18.2324 15.3701C18.275 15.3708 18.3198 15.3701 18.3648 15.3664C18.4097 15.3635 18.4545 15.3569 18.4916 15.3466L18.6003 15.3129L18.7035 15.269L18.798 15.217L18.8878 15.1562C18.9264 15.1283 18.9587 15.099 18.9855 15.0698C19.0131 15.0405 19.0344 15.0104 19.0493 14.9797C19.0659 14.9489 19.0761 14.9174 19.08 14.8852L19.0785 14.7863L19.0462 14.6852L18.9903 14.5864C18.9682 14.5534 18.9414 14.5205 18.9107 14.489C18.88 14.4575 18.8453 14.4253 18.8083 14.3938L18.7461 14.3454L18.6862 14.3037L18.6271 14.2671L18.568 14.237L18.5263 14.2194L18.4869 14.2048L18.4459 14.193L18.4057 14.1835L18.3104 14.1762L18.2104 14.1857L18.108 14.2136L18.0032 14.2597L17.6133 14.4757C17.5408 14.516 17.4668 14.549 17.3928 14.5761C17.318 14.6025 17.2431 14.6222 17.1667 14.6347C17.0911 14.6486 17.0147 14.6537 16.9375 14.653C16.8587 14.6523 16.7807 14.645 16.7004 14.6303L16.6019 14.6091L16.5019 14.5791C16.468 14.5681 16.4334 14.5564 16.3995 14.5425C16.3648 14.5285 16.331 14.5139 16.2971 14.4978C16.2475 14.4751 16.1971 14.4495 16.1474 14.4216C16.097 14.3931 16.0466 14.3623 15.9962 14.3293C15.9442 14.2956 15.893 14.2597 15.8402 14.2216C15.789 14.1828 15.7362 14.1425 15.6835 14.0978C15.6299 14.0546 15.5803 14.0107 15.5322 13.9667C15.4857 13.9221 15.4416 13.8788 15.4014 13.8349C15.3605 13.7924 15.3235 13.7484 15.2888 13.7052C15.2549 13.6627 15.2242 13.6195 15.1974 13.5756C15.169 13.5331 15.1446 13.4906 15.1218 13.4481C15.1005 13.4063 15.0816 13.3646 15.0651 13.3229L15.0249 13.2013L15.0013 13.0811C14.9958 13.0416 14.9934 13.0027 14.9934 12.9647C14.9942 12.9273 14.9973 12.89 15.0036 12.8526C15.0099 12.8152 15.0194 12.7793 15.0312 12.7435C15.043 12.7076 15.0588 12.6717 15.0761 12.6373L15.1021 12.5933L15.1305 12.5508L15.1605 12.5076L15.1935 12.4658L14.5831 11.9634L15.0171 11.6389L15.6158 12.1326L15.7229 12.0754L15.8332 12.0256L15.9482 11.9831L16.0679 11.9487C16.1301 11.9333 16.2081 11.9267 16.2917 11.9267C16.3744 11.9253 16.4618 11.9311 16.5437 11.9392C16.6241 11.9465 16.6974 11.9553 16.7533 11.9641C16.8092 11.9714 16.8454 11.978 16.8525 11.9788L16.8706 11.9802L16.8895 11.9846L16.91 11.9905L16.9302 11.9992Z" fill="white"/>
</svg>
